<mxfile host="app.diagrams.net" modified="2024-04-09T15:01:06.300Z" agent="Mozilla/5.0 (Windows NT 10.0; Win64; x64) AppleWebKit/537.36 (KHTML, like Gecko) Chrome/121.0.0.0 Safari/537.36 OPR/107.0.0.0" etag="BHkhW4PMzJJErsExdWev" version="24.2.0" type="device">
  <diagram name="Página-1" id="UQjAem0ykTcDmZUre2Hk">
    <mxGraphModel dx="1009" dy="542" grid="1" gridSize="10" guides="1" tooltips="1" connect="1" arrows="1" fold="1" page="1" pageScale="1" pageWidth="827" pageHeight="1169" math="0" shadow="0">
      <root>
        <mxCell id="0" />
        <mxCell id="1" parent="0" />
        <mxCell id="OpnE4td92vkauZPAfibV-5" value="" style="whiteSpace=wrap;html=1;aspect=fixed;" vertex="1" parent="1">
          <mxGeometry x="485" y="50" width="250" height="250" as="geometry" />
        </mxCell>
        <mxCell id="OpnE4td92vkauZPAfibV-1" value="Visualizar Tarefas" style="ellipse;whiteSpace=wrap;html=1;" vertex="1" parent="1">
          <mxGeometry x="550" y="80" width="120" height="40" as="geometry" />
        </mxCell>
        <mxCell id="OpnE4td92vkauZPAfibV-2" value="Excluir Tarefa" style="ellipse;whiteSpace=wrap;html=1;" vertex="1" parent="1">
          <mxGeometry x="550" y="180" width="120" height="40" as="geometry" />
        </mxCell>
        <mxCell id="OpnE4td92vkauZPAfibV-3" value="Adicionar Tarefa" style="ellipse;whiteSpace=wrap;html=1;" vertex="1" parent="1">
          <mxGeometry x="550" y="230" width="120" height="40" as="geometry" />
        </mxCell>
        <mxCell id="OpnE4td92vkauZPAfibV-4" value="Adicionar Tarefa" style="ellipse;whiteSpace=wrap;html=1;" vertex="1" parent="1">
          <mxGeometry x="550" y="130" width="120" height="40" as="geometry" />
        </mxCell>
        <mxCell id="OpnE4td92vkauZPAfibV-8" value="" style="rounded=0;orthogonalLoop=1;jettySize=auto;html=1;entryX=0;entryY=0.5;entryDx=0;entryDy=0;" edge="1" parent="1" source="OpnE4td92vkauZPAfibV-6" target="OpnE4td92vkauZPAfibV-1">
          <mxGeometry relative="1" as="geometry">
            <mxPoint x="345" y="275" as="targetPoint" />
          </mxGeometry>
        </mxCell>
        <mxCell id="OpnE4td92vkauZPAfibV-6" value="Usuário" style="shape=umlActor;verticalLabelPosition=bottom;verticalAlign=top;html=1;outlineConnect=0;" vertex="1" parent="1">
          <mxGeometry x="380" y="140" width="30" height="60" as="geometry" />
        </mxCell>
        <mxCell id="OpnE4td92vkauZPAfibV-11" value="" style="rounded=0;orthogonalLoop=1;jettySize=auto;html=1;entryX=0;entryY=0.5;entryDx=0;entryDy=0;" edge="1" parent="1" source="OpnE4td92vkauZPAfibV-6" target="OpnE4td92vkauZPAfibV-4">
          <mxGeometry relative="1" as="geometry">
            <mxPoint x="370" y="160" as="sourcePoint" />
            <mxPoint x="560" y="110" as="targetPoint" />
          </mxGeometry>
        </mxCell>
        <mxCell id="OpnE4td92vkauZPAfibV-12" value="" style="rounded=0;orthogonalLoop=1;jettySize=auto;html=1;entryX=0;entryY=0.5;entryDx=0;entryDy=0;" edge="1" parent="1" source="OpnE4td92vkauZPAfibV-6" target="OpnE4td92vkauZPAfibV-2">
          <mxGeometry relative="1" as="geometry">
            <mxPoint x="380" y="195" as="sourcePoint" />
            <mxPoint x="570" y="120" as="targetPoint" />
          </mxGeometry>
        </mxCell>
        <mxCell id="OpnE4td92vkauZPAfibV-13" value="" style="rounded=0;orthogonalLoop=1;jettySize=auto;html=1;entryX=0;entryY=0.5;entryDx=0;entryDy=0;" edge="1" parent="1" source="OpnE4td92vkauZPAfibV-6" target="OpnE4td92vkauZPAfibV-3">
          <mxGeometry relative="1" as="geometry">
            <mxPoint x="390" y="205" as="sourcePoint" />
            <mxPoint x="580" y="130" as="targetPoint" />
          </mxGeometry>
        </mxCell>
      </root>
    </mxGraphModel>
  </diagram>
</mxfile>
